PathFileType	4	(X/Y/Z)	0_coords_data.trc
DataRate	CameraRate	NumFrames	NumMarkers	Units	OrigDataRate	OrigDataStartFrame	OrigNumFrames
30.0	30.0	6	21	m	30.0	39	48
Frame#	Time	THUMB_TIP	THUMB_IP	THUMB_MCP	THUMB_CMC	INDEX_TIP	INDEX_DIP	INDEX_PIP	INDEX_MCP	MIDDLE_TIP	MIDDLE_DIP	MIDDLE_PIP	MIDDLE_MCP	RING_TIP	RING_DIP	RING_PIP	RING_MCP	PINKY_TIP	PINKY_DIP	PINKY_PIP	PINKY_MCP	WRIST
X1	Y1	Z1	X2	Y2	Z2	X3	Y3	Z3	X4	Y4	Z4	X5	Y5	Z5	X6	Y6	Z6	X7	Y7	Z7	X8	Y8	Z8	X9	Y9	Z9	X10	Y10	Z10	X11	Y11	Z11	X12	Y12	Z12	X13	Y13	Z13	X14	Y14	Z14	X15	Y15	Z15	X16	Y16	Z16	X17	Y17	Z17	X18	Y18	Z18	X19	Y19	Z19	X20	Y20	Z20	X21	Y21	Z21
37	1.2666666666666608	0.5396170654985233	-0.023936811373861833	-0.14083641091268134	0.5224455587672504	-0.02560561296856456	-0.12565897839544155	0.49361888514224317	-0.03134907202040349	-0.11541907772028057	0.48097180145914464	-0.02960307690523345	-0.07267691147463373	0.5849944274235672	0.012749708799186465	-0.13865381052409198	0.5676953084072618	0.016362770930394066	-0.13469322176789247	0.5435903630359699	0.019526242987617848	-0.12829369942710803	0.5035567812009818	0.017191904362568455	-0.11395845326093013	0.5998246711163627	0.01763410856901515	-0.12311705610194498	0.5829186579503727	0.020869503550978385	-0.117485099235805	0.5556475438621358	0.026084432487594955	-0.10862505394402444	0.5137145491978834	0.024949470618552128	-0.09324702607815014	0.5993940664790571	0.013782130359422884	-0.09575891248622947	0.5848796302295376	0.02264147988338905	-0.08977200457221962	0.5629373816640145	0.0321449498623223	-0.0828148668527034	0.5248671875892591	0.021917503727078236	-0.07382706942167813	0.5909037625232325	0.0023270594246308507	-0.0698419408688758	0.5796754244489404	0.012415759656413838	-0.061770847279861735	0.5621099550477094	0.021465835403453704	-0.054674197881218634	0.5273549832305077	0.011926065286828158	-0.05327128266373421	0.4622830810018609	-0.023011742144276925	-0.051989820119430985
38	1.299999999999994	0.5391352936169653	-0.02385781934127129	-0.1409525757923371	0.521783004153471	-0.025631810376390285	-0.12599426685775436	0.4929465550994314	-0.03129812300757118	-0.11573892156276289	0.4807606051807398	-0.02962042980588786	-0.07286027920902038	0.5845803695317648	0.012494252767948244	-0.13962196580011976	0.5673399036551865	0.016205992978619244	-0.1355001554009112	0.5433020501116894	0.01944083206713043	-0.12888749738065766	0.5034217279309989	0.01704916256815958	-0.11414043279912084	0.5995636637680383	0.017263984321016168	-0.12384647644060753	0.5827130777915054	0.02060364722203878	-0.11811024039638757	0.555506784073661	0.025922156774813132	-0.1091135416532131	0.5136710087146843	0.024801946466174507	-0.09347190011603243	0.599097793936668	0.013161060804669944	-0.09651503535705427	0.584747475847844	0.02221389492796122	-0.09042286291319235	0.5629177726201776	0.03188412517828909	-0.08334256045512906	0.5248786880687651	0.021766756115826014	-0.07410201264970045	0.5904156155022561	0.0013018933980001313	-0.07099452085212918	0.5795305581649209	0.011650698219189182	-0.06278368864486422	0.5622093681625753	0.021006216778860498	-0.05548556091357015	0.5273656580821112	0.011895349364097751	-0.05353840560923728	0.462283081001861	-0.023011742144276925	-0.051989820119430985
40	1.3333333333333337	0.5388469985398456	-0.02424008805914213	-0.14108097448720747	0.5213907170707267	-0.025965100645422567	-0.1262383814237274	0.49255236376806844	-0.03148455449001575	-0.11590856980644862	0.48060727609687937	-0.029711943607310998	-0.07296601828483862	0.584340918113598	0.01210757197047485	-0.14035251572165627	0.5671327567642862	0.015849394373804504	-0.13612428345769625	0.5431398842969053	0.019144487553765077	-0.12937933981824506	0.5033593672588398	0.016766247286811087	-0.11436299767320779	0.5994390886188311	0.01693419569100396	-0.12449918214341785	0.5826149921454711	0.02029174777980214	-0.118696025948201	0.5554427817944808	0.025616609977837212	-0.10960062176732668	0.5136796460815521	0.024538376005287965	-0.09376314002546049	0.5990710815406263	0.012810860238624766	-0.0971138444304365	0.5847455754528252	0.02187548089140612	-0.09098093910346883	0.5629413032158614	0.03157318881989213	-0.08385997342807408	0.5249257237464108	0.02153097105897328	-0.07444241461253315	0.5902786955273768	0.0006061557187466704	-0.0717802108088205	0.5795129706531984	0.011070313854061653	-0.06355825468800502	0.5623042610153628	0.020587408903444016	-0.05620317253879062	0.5273957895420828	0.011823085336579942	-0.05386464676076108	0.4622830810018608	-0.023011742144276925	-0.051989820119430985
41	1.3666666666666671	0.5384565850075334	-0.024642103654825664	-0.14134618847782385	0.5209591930394194	-0.02630982931707293	-0.1265455139854345	0.49214115611478915	-0.031676744571356386	-0.11607952294473584	0.48045030657752574	-0.02980892388574774	-0.07307109024853681	0.5841231827304245	0.011764824084483316	-0.14113099411187047	0.5669425699493273	0.015499411461745827	-0.1367859507763448	0.5429947789826787	0.018817439489945187	-0.12989364848888105	0.5033200284876685	0.01643102644604133	-0.1146013203488433	0.5993587887119913	0.016710223276866998	-0.12518198118826437	0.582551520307789	0.020030940772046923	-0.11930928469463273	0.5554022717703084	0.025297053284440763	-0.11011168104711039	0.5137129217914259	0.024221193417048648	-0.09408081878446245	0.5991398684789613	0.012624079355970763	-0.09772794103788451	0.5847884195896518	0.02162015831083197	-0.09155489655275068	0.5629714506769213	0.031261003193243986	-0.08439570969848972	0.5249880762195986	0.02125498817281224	-0.07481115116688777	0.5902672686049335	9.920308016353463e-05	-0.07246878981112151	0.5795396237407721	0.01061612224543218	-0.06426439788120766	0.5623878021349089	0.020218264770814898	-0.056887007182397836	0.5274349641117598	0.011728745750610448	-0.054220430363122296	0.462283081001861	-0.023011742144276925	-0.051989820119430985
42	1.4000000000000006	0.5380725166038143	-0.02500420028442618	-0.14162743865742342	0.5205600162133173	-0.026615880285239202	-0.1268384286280867	0.49176844448674917	-0.03184764293862441	-0.1162321070672187	0.480307614213893	-0.029894515962274437	-0.07316559264509442	0.5839291706435568	0.011453026045034731	-0.1418339531513571	0.5667718425011541	0.015172661354256545	-0.13738531243982482	0.5428656848253762	0.018507870821538375	-0.1303580913681486	0.5032859967870806	0.016113171303697937	-0.11482265436076272	0.5992952437084809	0.016554235052060662	-0.1258089726418273	0.5824994889502702	0.01981915210510443	-0.11987239629356186	0.5553667857882331	0.025007427669002547	-0.11058219899781793	0.5137439155679733	0.0239185672159965	-0.09438037877472905	0.599233359577548	0.012546937748873499	-0.09829100888891668	0.5848364581999611	0.021445336464222975	-0.09208232698156243	0.5629904158465866	0.03099465989591399	-0.0848892167716788	0.5250417157233588	0.020997364716409006	-0.07515931019190222	0.5903056475965913	-0.0002477397343165766	-0.07304240656103814	0.5795756571754112	0.010289860305480736	-0.06486767164407337	0.5624485082334758	0.019931141835391686	-0.0574840086925458	0.5274678450449048	0.011643527352731109	-0.05455961130598025	0.462283081001861	-0.023011742144276925	-0.051989820119430985
43	1.433333333333334	0.5378050848012045	-0.025265739755448435	-0.14180384980270655	0.5202667405401985	-0.026832566452273388	-0.12704066807637948	0.4914901983670139	-0.03197045758508699	-0.11634802129168309	0.48019751720921033	-0.02995202353109716	-0.07324011857955989	0.5837636622368527	0.01115893519148159	-0.1423385831261939	0.5666253204340543	0.014885908242630475	-0.13782339629434912	0.542753282175866	0.018264292861275955	-0.1307014485433409	0.5032402028190548	0.015882688108385667	-0.11499537925330658	0.5992231058231658	0.016428044404179554	-0.12629506475928337	0.5824376233523919	0.019654514528501532	-0.1203086243511444	0.5553193151577187	0.02479237926908462	-0.11094864269698523	0.5137468016703297	0.023699360636270428	-0.09461832262635647	0.5992819251632072	0.012523397534279224	-0.0987373052711013	0.5848515299001581	0.02134816051390842	-0.09250134095870052	0.5629818057116585	0.030822043435777435	-0.08528049022615702	0.5250639288316101	0.02081736419322211	-0.07543864892673138	0.5903157688802487	-0.0004624404134397908	-0.07348306703797494	0.5795854269650654	0.010094204672073448	-0.06533340404360721	0.5624751412141333	0.01975883955542468	-0.0579411802176559	0.5274799945174256	0.01159902667064494	-0.05483624666582415	0.4622830810018608	-0.023011742144276925	-0.051989820119430985
